<svg xmlns="http://www.w3.org/2000/svg" viewBox="0 0 20 20"><path d="M13.1 10a3.1 3.1 0 1 1-6.2 0v-.5H5.8v4.1a.6.6 0 0 0 .6.6h7.2l.4-.2a.5.5 0 0 0 .2-.4V9.5h-1.1zM10 12.1l.8-.2.7-.4a2.5 2.5 0 0 0 .4-.7 2.4 2.4 0 0 0 .2-.8 2.4 2.4 0 0 0-.2-.8 1.6 1.6 0 0 0-.4-.7l-.7-.4-.8-.2A2.1 2.1 0 0 0 7.9 10a2.1 2.1 0 0 0 2.1 2.1zm2.5-4.3H14V6h-1.7a.4.4 0 0 0-.1.3v1.2a.3.3 0 0 0 .3.3zM10 0a10.3 10.3 0 0 0-7.1 2.9A10.3 10.3 0 0 0 0 10a10.3 10.3 0 0 0 2.9 7.1A10.3 10.3 0 0 0 10 20a10 10 0 0 0 3.8-.8 11.5 11.5 0 0 0 3.3-2.1 11.5 11.5 0 0 0 2.1-3.3A10 10 0 0 0 20 10a10 10 0 0 0-.8-3.8 11.5 11.5 0 0 0-2.1-3.3A11.5 11.5 0 0 0 13.8.8 10 10 0 0 0 10 0zm5.2 14.1a1.1 1.1 0 0 1-1.1 1.1H5.9a1.1 1.1 0 0 1-1.1-1.1V5.9a1.1 1.1 0 0 1 1.1-1.1h8.2a1.1 1.1 0 0 1 1.1 1.1z" fill="#c24eed"/></svg>