<svg xmlns="http://www.w3.org/2000/svg" viewBox="0 0 20 20"><path d="M17 1H3a2 2 0 0 0-2 2v14a2 2 0 0 0 2 2h14a2 2 0 0 0 2-2V3a2 2 0 0 0-2-2m0 2v14H3V3h14m-1.1 8.5c-.3-.5-1-.7-2.2-.7h-1.2l-.8-.6a5.1 5.1 0 0 1-1.5-2.5c.3-1.3.6-2.8 0-3.5L9.5 4h-.2a1 1 0 0 0-.8.7 5 5 0 0 0 .2 3.2 19 19 0 0 1-1 2.8l-1 1.8-.9.5A3.9 3.9 0 0 0 4 15v.5l.5.3a.6.6 0 0 0 .5.2c.8 0 1.7-.9 2.9-3H8a23.2 23.2 0 0 1 3.9-.7 7.1 7.1 0 0 0 2.9.7 1.2 1.2 0 0 0 .9-.3.9.9 0 0 0 .3-.6c0-.3 0-.5-.1-.6M4.8 15.3c0-.4.5-1 1.2-1.6l.5-.3c-.7 1.1-1.3 1.8-1.7 1.9M9.3 4.7a.1.1 0 0 1 .1-.1h.1c.2.2.2.5.1 1.1v.2c-.1.2-.1.5-.2.8a2.8 2.8 0 0 1-.1-2m-1.2 7.6H8a9.3 9.3 0 0 1 .5-1 14.6 14.6 0 0 0 1-2.3 5.7 5.7 0 0 0 1.5 2.1l.4.3a12.7 12.7 0 0 0-3.3.9m7.2-.1h-.2a5.5 5.5 0 0 1-1.8-.5h.2c1.4 0 1.7.2 1.8.3h.1c0 .2 0 .2-.1.2z"/></svg>
