<svg xmlns="http://www.w3.org/2000/svg" xmlns:xlink="http://www.w3.org/1999/xlink" viewBox="0 0 400 121.4"><defs><clipPath id="a"><rect width="400" height="121.38" fill="none"/></clipPath></defs><g clip-path="url(#a)"><path d="M48.8,2.5,31.5,5.1,0,60.7l31.5,55.6,17.3,2.6L15.2,60.7ZM93,2.5l17.3,2.6,31.5,55.6-31.5,55.6L93,118.9l33.6-58.2Z" fill="#bbb"/><path d="M48.8,2.5,70.9,0V60.7H15.2Z" fill="#f7f7f7"/><path d="M48.8,118.9l22.1,2.5V60.7H15.2Z" fill="#ededed"/><path d="M93,118.9l-22.1,2.5V60.7h55.7Z" fill="#d9d9d9"/><path d="M93,2.5,70.9,0V60.7h55.7Z" fill="#f2f2f2"/><path d="M200.2,50.9a50.4,50.4,0,0,1-11.6,1.4,23.5,23.5,0,0,1-8.3-1.2,10.9,10.9,0,0,1-4.9-4.1,18.8,18.8,0,0,1-2.5-6.6,74.2,74.2,0,0,1-.6-9.4c0-8,1.1-13.6,3.4-16.7s6.4-4.7,12.4-4.7a50.6,50.6,0,0,1,12.2,1.7l-.3,6.6a84.4,84.4,0,0,0-10-.9c-2.7,0-4.6.4-5.7,1.1a6.3,6.3,0,0,0-2.5,4,45.2,45.2,0,0,0-.9,10.2c0,4.7.6,8,1.7,9.9s3.4,2.7,6.7,2.7a63.5,63.5,0,0,0,10.7-.8Zm7.2-26.2q3.3-4.2,10.8-4.2T229,24.7c2.2,2.8,3.3,6.7,3.3,11.6,0,10.7-4.7,16-14.1,16s-14-5.3-14-16C204.2,31.4,205.3,27.5,207.4,24.7Zm6.4,18.5c.8,1.5,2.3,2.2,4.4,2.2s3.7-.7,4.5-2.2a14.7,14.7,0,0,0,1.3-6.9,14.1,14.1,0,0,0-1.3-6.7c-.8-1.4-2.3-2.2-4.5-2.2a4.3,4.3,0,0,0-2.5.5,3.9,3.9,0,0,0-1.9,1.7c-.9,1.4-1.3,3.7-1.3,6.7S212.9,41.7,213.8,43.2ZM264.1,9.1V51.6H256V50.3a17.4,17.4,0,0,1-7.4,2c-4.4,0-7.5-1.2-9.2-3.8s-2.6-6.6-2.6-12.2,1-9.4,3.1-12,5.2-3.8,9.5-3.8l5.4.6,1.2.3V9.1Zm-9,35.2.9-.2V28.2a30.5,30.5,0,0,0-6-.6c-3.3,0-4.9,2.9-4.9,8.7,0,3.1.3,5.4,1.1,6.7a3.3,3.3,0,0,0,1.5,1.6,3.8,3.8,0,0,0,2.1.4A18.8,18.8,0,0,0,255.1,44.3Zm24.8-.4a6.1,6.1,0,0,0,4.1,1.3c3.8,0,7.1-.2,10.1-.4l1.7-.2v6a53.2,53.2,0,0,1-12.6,1.8c-4.6,0-8-1.3-10-3.7s-3.1-6.4-3.1-11.9c0-10.8,4.4-16.3,13.4-16.3s13.3,4.6,13.3,13.8l-.6,5.6H278.4a4.1,4.1,0,0,0,.3,2.2A5.7,5.7,0,0,0,279.9,43.9Zm9-10.2q0-3.6-1.2-5.1c-.7-.9-2.1-1.4-4-1.4s-3.3.5-4.1,1.5-1.2,2.7-1.3,5Zm36.9-5.5V51.6h-8.2V28.2h-3.2v-7h3.2V19.9c0-4.4.7-7.4,2-9s3.6-2.5,7-2.5a26,26,0,0,1,5.6.6l1.3.2v6.6l-4.5-.2-1.4.2-1.1.8a6.8,6.8,0,0,0-.6,3.4v1.2h7.4v7Zm13.6-3.5c2.1-2.8,5.7-4.2,10.7-4.2s8.7,1.4,10.8,4.2,3.3,6.7,3.3,11.6c0,10.7-4.7,16-14.1,16s-14-5.3-14-16C336.1,31.4,337.2,27.5,339.4,24.7Zm6.3,18.5c.8,1.5,2.3,2.2,4.4,2.2s3.7-.7,4.5-2.2a15,15,0,0,0,1.3-6.9c0-3-.4-5.3-1.3-6.7s-2.3-2.1-4.5-2.1-3.6.7-4.4,2.1a14.1,14.1,0,0,0-1.3,6.7C344.4,39.4,344.8,41.7,345.7,43.2Zm24.4,8.4V21.2h8.1v3.3a29,29,0,0,1,9.8-4v8.2a81.5,81.5,0,0,0-8.5,2.2l-1.2.4V51.6ZM182.3,98.5v13.8h-8.4V71H190c9.8,0,14.6,4.6,14.6,13.6,0,5.4-2,9.4-6.1,11.9l5.9,15.8h-9.2l-4.8-13.8Zm12.3-9a7.6,7.6,0,0,0,1.4-4.9,6.4,6.4,0,0,0-1.5-4.6,7,7,0,0,0-2-1.5,5.4,5.4,0,0,0-2.5-.3h-7.7V91.3h7.8a5.5,5.5,0,0,0,2.5-.4A6.6,6.6,0,0,0,194.6,89.5Zm17.5-4.2c2.2-2.7,5.8-4,10.8-4s8.7,1.3,10.8,4,3.2,6.7,3.2,11.8c0,10.6-4.6,15.9-14,15.9s-14-5.3-14-15.9C208.9,92,210,88.1,212.1,85.3Zm6.3,18.7a5.5,5.5,0,0,0,2,1.7,5.1,5.1,0,0,0,2.5.4c2.2,0,3.7-.8,4.5-2.1a15.2,15.2,0,0,0,1.3-6.9,14.9,14.9,0,0,0-1.3-6.9q-1.2-2.1-4.5-2.1a4.3,4.3,0,0,0-2.5.5,4.5,4.5,0,0,0-2,1.6c-.8,1.5-1.2,3.7-1.2,6.9S217.6,102.5,218.4,104Zm32.7,8.3h-8.2V81.9H251v1.7a15.3,15.3,0,0,1,7.2-2.3c3.3,0,5.8.8,7.6,2.7a23.2,23.2,0,0,1,10.3-2.7c4,0,6.8,1,8.4,3.4s2.3,6,2.3,11.2v16.4h-8.2V96.1a14.3,14.3,0,0,0-.8-5.8,3.2,3.2,0,0,0-1.4-1.4,3.4,3.4,0,0,0-2-.4,26.7,26.7,0,0,0-4.8.8l-.9.3c.2,3.1.3,5.4.3,7v15.7h-8.2V96.7a19.7,19.7,0,0,0-.8-6.4c-.5-1.2-1.7-1.8-3.5-1.8a15,15,0,0,0-4.7.8l-.7.3Zm66.3-20.9v12.7a4.5,4.5,0,0,0,.5,1.9l.6.6a1.5,1.5,0,0,0,.9.2l-.2,6.2a20.7,20.7,0,0,1-5-.4,10.4,10.4,0,0,1-3.7-1.7,20.2,20.2,0,0,1-9,2.1c-6.3,0-9.5-3.3-9.5-9.9q0-4.9,2.7-6.9c1.7-1.4,4.4-2.2,8-2.4l6.5-.5V91.4a6.6,6.6,0,0,0-.1-1.4,7.5,7.5,0,0,0-.7-1.2,4.5,4.5,0,0,0-2.8-.7l-11.4.5-.3-5.7a47,47,0,0,1,12.4-1.7c4,0,6.8.8,8.5,2.4S317.4,87.8,317.4,91.4Zm-13.7,8.1c-2.3.2-3.4,1.4-3.4,3.6s1,3.3,3,3.3a16.9,16.9,0,0,0,5-.8l.9-.2V99Zm29.7,12.8h-8.2V81.9h8.1v1.7a15.7,15.7,0,0,1,7.6-2.3c4.1,0,6.9,1.1,8.4,3.5s2.4,6.1,2.4,11v16.5h-8.2V96.1a14.4,14.4,0,0,0-.9-5.8c-.6-1.2-1.9-1.8-3.7-1.8a13.1,13.1,0,0,0-4.8.8l-.7.3Zm25.5-34.2V69.8h8.2v8.3Zm0,34.2V81.9h8.2v30.4ZM398,91.4v12.7a4.5,4.5,0,0,0,.5,1.9,1.7,1.7,0,0,0,.6.6,1.5,1.5,0,0,0,.9.2l-.2,6.2a20.7,20.7,0,0,1-5-.4,10.8,10.8,0,0,1-3.8-1.7,19.7,19.7,0,0,1-8.9,2.1c-6.3,0-9.5-3.3-9.5-9.9,0-3.3.9-5.6,2.6-6.9s4.5-2.2,8.1-2.4l6.5-.5V91.4a6.6,6.6,0,0,0-.1-1.4,7.5,7.5,0,0,0-.7-1.2,4.5,4.5,0,0,0-2.8-.7l-11.4.5-.3-5.7a47,47,0,0,1,12.4-1.7c4,0,6.8.8,8.5,2.4S398,87.8,398,91.4Zm-13.7,8.1c-2.3.2-3.4,1.4-3.4,3.6s1,3.3,2.9,3.3a18.1,18.1,0,0,0,5.1-.8l.9-.2V99Z" fill="#fff"/></g></svg>