<svg xmlns="http://www.w3.org/2000/svg" viewBox="0 0 181.9 40"><g fill="#1c1080"><path d="M55.7 16a6.7 6.7 0 0 1-2.5-2.5 6.9 6.9 0 0 1-.9-3.6 6.9 6.9 0 0 1 .9-3.6 6.4 6.4 0 0 1 2.5-2.4 7.4 7.4 0 0 1 3.6-.9 6.8 6.8 0 0 1 4.6 1.4v1.4a6.3 6.3 0 0 0-4.4-1.5 5.4 5.4 0 0 0-2.9.7 5.5 5.5 0 0 0-2.1 1.9 7.3 7.3 0 0 0-.7 3 7.3 7.3 0 0 0 .7 3 4.8 4.8 0 0 0 2.1 1.9 5.1 5.1 0 0 0 2.8.7 10.3 10.3 0 0 0 2.6-.3 4.9 4.9 0 0 0 2-1.3v1.5a6.8 6.8 0 0 1-4.7 1.5 7.4 7.4 0 0 1-3.6-.9zm13.2 0a6 6 0 0 1-2.5-2.5 6.9 6.9 0 0 1-.9-3.6 7.1 7.1 0 0 1 .9-3.6 5.8 5.8 0 0 1 2.5-2.4 7.4 7.4 0 0 1 3.6-.9 6.8 6.8 0 0 1 3.5.9 6.4 6.4 0 0 1 2.5 2.4 6.9 6.9 0 0 1 .9 3.6 6.9 6.9 0 0 1-.9 3.6A6 6 0 0 1 76 16a6.8 6.8 0 0 1-3.5.9 6.9 6.9 0 0 1-3.6-.9zm6.3-1.2a5.2 5.2 0 0 0 2-1.9 7.3 7.3 0 0 0 .7-3 6.5 6.5 0 0 0-.7-2.9 6.4 6.4 0 0 0-2-2 5.9 5.9 0 0 0-5.6 0 5.2 5.2 0 0 0-1.9 2 5.6 5.6 0 0 0-.8 3 5.5 5.5 0 0 0 .8 2.9 4.6 4.6 0 0 0 1.9 2 5.3 5.3 0 0 0 2.8.7 6.5 6.5 0 0 0 2.8-.8zm4.9-11.5h1.5l4.5 11.2 4.4-11.2H92l-5.2 13.3h-1.4zm14.3 0h1.4v13.3h-1.4zm4.1 0h4.1a8.4 8.4 0 0 1 3.7.7 5.9 5.9 0 0 1 2.4 2.3 6.5 6.5 0 0 1 .9 3.5 6.5 6.5 0 0 1-1.9 5 7.7 7.7 0 0 1-5.4 1.8h-3.8zm3.7 12a6.1 6.1 0 0 0 4.4-1.4 4.9 4.9 0 0 0 1.5-4 5.7 5.7 0 0 0-1.4-4 5.6 5.6 0 0 0-4.1-1.4H100v10.8zm9.3-5h5.8v1.3h-5.8zm10.6-5.4L119.2 7V5.5l3.1-2.2h1.3v13.3h-1.5V4.9zm5.5 11.7v-1.3a3.6 3.6 0 0 0 1.5.2 4.1 4.1 0 0 0 3.4-1.3 6.7 6.7 0 0 0 1.3-4.1 3.1 3.1 0 0 1-1.5 1.2 6.7 6.7 0 0 1-2.2.4 5.1 5.1 0 0 1-2.2-.5 3.3 3.3 0 0 1-1.5-1.6 4 4 0 0 1-.6-2.2 5 5 0 0 1 .6-2.4 4.6 4.6 0 0 1 1.6-1.5 5.1 5.1 0 0 1 2.5-.6 4.7 4.7 0 0 1 3.5 1.4 5.9 5.9 0 0 1 1.3 4.2 10.9 10.9 0 0 1-1.5 6.2 5.5 5.5 0 0 1-4.6 2.1 2.9 2.9 0 0 1-1.6-.2zm5.3-7a2.8 2.8 0 0 0 .9-2.2 2.9 2.9 0 0 0-.4-1.6 2.9 2.9 0 0 0-1.1-1.1 3.3 3.3 0 0 0-1.7-.4 3.2 3.2 0 0 0-2.3.9 3 3 0 0 0-.9 2.3 2.8 2.8 0 0 0 .9 2.2 3.2 3.2 0 0 0 2.3.9 4.4 4.4 0 0 0 2.3-1zM54.1 35.1l-1.8-.5v-1.4a8.5 8.5 0 0 0 3.9.8 5.2 5.2 0 0 0 2.5-.5 2 2 0 0 0 .8-1.7 2.1 2.1 0 0 0-.3-1.2 3.9 3.9 0 0 0-1-.8l-2.2-1a8.3 8.3 0 0 1-2.7-1.6 3.1 3.1 0 0 1-.8-2.3 2.7 2.7 0 0 1 .5-1.8 3.5 3.5 0 0 1 1.5-1.2 7.7 7.7 0 0 1 4.2-.2l1.7.5v1.4a8.1 8.1 0 0 0-3.4-.8 3.9 3.9 0 0 0-2.3.6 1.8 1.8 0 0 0-.8 1.5 4.2 4.2 0 0 0 .3 1.2l1.1.8a8.5 8.5 0 0 0 1.9.9l2.1 1a4.6 4.6 0 0 1 1.2 1.2 4.9 4.9 0 0 1 .4 1.9 3.1 3.1 0 0 1-1.2 2.6 6 6 0 0 1-3.6.9zm1.9 1.2h1.5L55.8 40h-1.3zM66.3 23H62v-1.2h10V23h-4.3v12.1h-1.5V23zm7.6-1.2h1.5v13.3h-1.5zm4.2 0h5.1a5.1 5.1 0 0 1 3.2.9 3.8 3.8 0 0 1 1 2.9 3.8 3.8 0 0 1-.8 2.4 4.1 4.1 0 0 1-2.4 1.3l3.2 5.7h-1.6l-3.1-5.7h-3.2V35H78V21.8zm4.9 6.3a3.8 3.8 0 0 0 2.2-.6 2.4 2.4 0 0 0 .7-1.9 2.3 2.3 0 0 0-.7-2A3.2 3.2 0 0 0 83 23h-3.4v5.1zm6.8-6.3h1.5v13.3h-1.5zm14.4 12.7a6 6 0 0 1-2.5-2.5 6.9 6.9 0 0 1-.9-3.6 7.4 7.4 0 0 1 .9-3.6 5.8 5.8 0 0 1 2.5-2.4 6.8 6.8 0 0 1 3.5-.9 7.4 7.4 0 0 1 3.6.9 7.2 7.2 0 0 1 2.5 2.4 7.4 7.4 0 0 1 .9 3.6 6.9 6.9 0 0 1-.9 3.6 6.7 6.7 0 0 1-2.5 2.5 7.4 7.4 0 0 1-3.6.9 6.8 6.8 0 0 1-3.5-.9zm6.3-1.2a5.5 5.5 0 0 0 2-2 6.5 6.5 0 0 0 .7-2.9 6.2 6.2 0 0 0-.7-2.9 5.5 5.5 0 0 0-2-2 5.3 5.3 0 0 0-2.8-.7 5.5 5.5 0 0 0-2.8.7 4.6 4.6 0 0 0-1.9 2 5.4 5.4 0 0 0-.7 2.9 5.6 5.6 0 0 0 .7 3 5.2 5.2 0 0 0 1.9 2 6.8 6.8 0 0 0 2.8.7 6.5 6.5 0 0 0 2.8-.8zm6.5-11.5h8.5V23h-7v4.8h5.2V29h-5.2v6.1H117zm10.4 0h1.5v13.3h-1.5zm7.2 12.7a6 6 0 0 1-2.5-2.5 6.9 6.9 0 0 1-.9-3.6 7.1 7.1 0 0 1 .9-3.6 6.4 6.4 0 0 1 2.5-2.4 8 8 0 0 1 8.2.5v1.4a6.4 6.4 0 0 0-4.5-1.5 5.9 5.9 0 0 0-2.9.7 4.8 4.8 0 0 0-2 2 5.4 5.4 0 0 0-.7 2.9 5.6 5.6 0 0 0 .7 3 5.5 5.5 0 0 0 2 2 6.9 6.9 0 0 0 2.9.7 9.3 9.3 0 0 0 2.5-.4 4.5 4.5 0 0 0 2.1-1.2v1.3a6.8 6.8 0 0 1-4.7 1.5 7.3 7.3 0 0 1-3.6-.8zm10.6-12.7h1.5v13.3h-1.5zm9.1 0h1.4l5.2 13.3h-1.5l-1.4-3.6h-6.1l-1.4 3.6H149zm3.3 8.5l-2.6-6.8-2.6 6.8zm5.7-8.5h1.4v12h7.1v1.3h-8.5zm10.1 0h8.5V23h-7.1v4.8h5.3V29h-5.3v4.8h7.1V35h-8.5zM52.7 36.3h1.2v2.1h-1.2z"/><path d="M58.7 36.3H181.9V38.379999999999995H58.7z"/></g><circle cx="19.9" cy="19.9" r="19.9" fill="#05d6c7"/></svg>
